<svg width="369" height="76" viewBox="0 0 369 76" fill="none" xmlns="http://www.w3.org/2000/svg">
<path d="M340.984 21.1869C342.482 21.4544 343.901 21.6414 345.238 21.7484C346.629 21.8019 347.86 21.856 348.93 21.9095C350.16 21.963 351.284 21.963 352.301 21.9095C353.371 21.9095 354.681 21.882 356.232 21.8285C357.57 21.775 359.229 21.7484 361.209 21.7484C363.242 21.7484 365.623 21.6953 368.352 21.5883C365.944 22.3373 364.018 23.0597 362.573 23.7552C361.182 24.3973 360.111 25.0124 359.362 25.601C358.453 26.2429 357.811 26.8582 357.437 27.4467C357.062 28.2492 356.473 29.9344 355.671 32.5023C355.35 33.5723 354.949 34.9101 354.468 36.515C353.986 38.0666 353.424 39.913 352.782 42.0531C352.14 44.1931 351.418 46.6806 350.615 49.516C349.813 52.2981 348.903 55.4821 347.887 59.0668C347.298 58.9598 346.683 58.9057 346.041 58.9056C345.453 58.8521 344.89 58.8256 344.355 58.8256H342.51C341.868 58.8791 341.172 58.9332 340.423 58.9867C339.781 59.0402 339.032 59.1199 338.176 59.2269C337.32 59.3339 336.384 59.4678 335.367 59.6283L330.552 40.1263L322.687 59.6283L313.698 59.3871C312.575 53.3416 311.665 48.5263 310.97 44.9418C310.328 41.3037 309.793 38.5211 309.365 36.5951C308.884 34.3482 308.562 32.7702 308.401 31.8607C308.134 30.8978 307.733 29.9615 307.198 29.0521C306.77 28.3031 306.155 27.5265 305.353 26.724C304.55 25.868 303.56 25.1465 302.383 24.558C303.988 24.665 305.406 24.7447 306.637 24.7982C307.921 24.8517 308.991 24.9049 309.847 24.9584C310.809 25.0119 311.665 25.0394 312.414 25.0394C313.163 25.0394 314.019 25.0119 314.982 24.9584C315.838 24.9049 316.882 24.8251 318.112 24.7181C319.396 24.5576 320.868 24.3431 322.526 24.0756C321.242 24.878 320.199 25.6272 319.396 26.3226C318.648 26.9646 318.059 27.5533 317.631 28.0883C317.149 28.6768 316.828 29.2122 316.668 29.6937C316.561 30.1217 316.454 30.978 316.347 32.2621C316.293 33.4925 316.24 34.9368 316.187 36.5951C316.187 38.2002 316.213 39.9127 316.267 41.7318C316.32 43.5509 316.401 45.2094 316.508 46.7074C316.615 48.1518 316.775 49.3823 316.989 50.3988C317.203 51.3615 317.47 51.8161 317.791 51.7631C318.219 51.3886 318.915 50.1316 319.878 47.9916C320.252 47.082 320.707 45.9315 321.242 44.5404C321.777 43.096 322.392 41.3574 323.088 39.3246C323.783 37.238 324.56 34.803 325.416 32.0209C326.325 29.239 327.341 26.0022 328.465 22.3109H335.447C335.661 25.9489 335.902 29.1322 336.17 31.8607C336.437 34.5893 336.704 36.9702 336.972 39.0033C337.239 40.9828 337.48 42.668 337.694 44.059C337.962 45.3965 338.23 46.4939 338.497 47.35C339.086 49.3828 339.674 50.4795 340.263 50.64C340.744 50.5329 341.252 49.9175 341.787 48.7943C342.376 47.6708 342.911 46.2791 343.393 44.6205C343.928 42.962 344.409 41.1694 344.837 39.2435C345.265 37.2641 345.639 35.4184 345.96 33.7064C346.281 31.9944 346.496 30.4963 346.603 29.2123C346.71 27.9288 346.709 27.1263 346.603 26.8051C346.442 26.4841 346.121 26.0291 345.64 25.4408C345.212 24.9593 344.623 24.3706 343.874 23.6752C343.178 22.9796 342.215 22.1499 340.984 21.1869Z" fill="#BD7A3F"/>
<path d="M340.984 21.1869C342.482 21.4544 343.901 21.6414 345.238 21.7484C346.629 21.8019 347.86 21.856 348.93 21.9095C350.16 21.963 351.284 21.963 352.301 21.9095C353.371 21.9095 354.681 21.882 356.232 21.8285C357.57 21.775 359.229 21.7484 361.209 21.7484C363.242 21.7484 365.623 21.6953 368.352 21.5883C365.944 22.3373 364.018 23.0597 362.573 23.7552C361.182 24.3973 360.111 25.0124 359.362 25.601C358.453 26.2429 357.811 26.8582 357.437 27.4467C357.062 28.2492 356.473 29.9344 355.671 32.5023C355.35 33.5723 354.949 34.9101 354.468 36.515C353.986 38.0666 353.424 39.913 352.782 42.0531C352.14 44.1931 351.418 46.6806 350.615 49.516C349.813 52.2981 348.903 55.4821 347.887 59.0668C347.298 58.9598 346.683 58.9057 346.041 58.9056C345.453 58.8521 344.89 58.8256 344.355 58.8256H342.51C341.868 58.8791 341.172 58.9332 340.423 58.9867C339.781 59.0402 339.032 59.1199 338.176 59.2269C337.32 59.3339 336.384 59.4678 335.367 59.6283L330.552 40.1263L322.687 59.6283L313.698 59.3871C312.575 53.3416 311.665 48.5263 310.97 44.9418C310.328 41.3037 309.793 38.5211 309.365 36.5951C308.884 34.3482 308.562 32.7702 308.401 31.8607C308.134 30.8978 307.733 29.9615 307.198 29.0521C306.77 28.3031 306.155 27.5265 305.353 26.724C304.55 25.868 303.56 25.1465 302.383 24.558C303.988 24.665 305.406 24.7447 306.637 24.7982C307.921 24.8517 308.991 24.9049 309.847 24.9584C310.809 25.0119 311.665 25.0394 312.414 25.0394C313.163 25.0394 314.019 25.0119 314.982 24.9584C315.838 24.9049 316.882 24.8251 318.112 24.7181C319.396 24.5576 320.868 24.3431 322.526 24.0756C321.242 24.878 320.199 25.6272 319.396 26.3226C318.648 26.9646 318.059 27.5533 317.631 28.0883C317.149 28.6768 316.828 29.2122 316.668 29.6937C316.561 30.1217 316.454 30.978 316.347 32.2621C316.293 33.4925 316.24 34.9368 316.187 36.5951C316.187 38.2002 316.213 39.9127 316.267 41.7318C316.32 43.5509 316.401 45.2094 316.508 46.7074C316.615 48.1518 316.775 49.3823 316.989 50.3988C317.203 51.3615 317.47 51.8161 317.791 51.7631C318.219 51.3886 318.915 50.1316 319.878 47.9916C320.252 47.082 320.707 45.9315 321.242 44.5404C321.777 43.096 322.392 41.3574 323.088 39.3246C323.783 37.238 324.56 34.803 325.416 32.0209C326.325 29.239 327.341 26.0022 328.465 22.3109H335.447C335.661 25.9489 335.902 29.1322 336.17 31.8607C336.437 34.5893 336.704 36.9702 336.972 39.0033C337.239 40.9828 337.48 42.668 337.694 44.059C337.962 45.3965 338.23 46.4939 338.497 47.35C339.086 49.3828 339.674 50.4795 340.263 50.64C340.744 50.5329 341.252 49.9175 341.787 48.7943C342.376 47.6708 342.911 46.2791 343.393 44.6205C343.928 42.962 344.409 41.1694 344.837 39.2435C345.265 37.2641 345.639 35.4184 345.96 33.7064C346.281 31.9944 346.496 30.4963 346.603 29.2123C346.71 27.9288 346.709 27.1263 346.603 26.8051C346.442 26.4841 346.121 26.0291 345.64 25.4408C345.212 24.9593 344.623 24.3706 343.874 23.6752C343.178 22.9796 342.215 22.1499 340.984 21.1869Z" stroke="black"/>
<path d="M285.869 25.6008C287.26 25.6008 288.705 25.8685 290.203 26.4036C291.701 26.8851 293.146 27.5268 294.537 28.3293C295.928 29.0784 297.185 29.9081 298.309 30.8176C299.486 31.6737 300.449 32.5024 301.198 33.3049C302.536 34.7494 303.445 36.7024 303.927 39.1633C304.462 41.5709 304.568 44.0591 304.247 46.6272C303.926 49.1418 303.177 51.5227 302 53.7698C300.823 56.0168 299.191 57.6753 297.104 58.7454C295.607 59.4943 294.136 60.083 292.691 60.511C291.247 60.939 289.855 61.2599 288.518 61.4739C287.18 61.6879 285.923 61.7952 284.746 61.7952C283.569 61.7952 282.552 61.7686 281.696 61.7151C280.091 61.6081 278.406 61.046 276.641 60.0295C274.929 59.0131 273.297 57.756 271.745 56.2581C270.247 54.76 268.963 53.128 267.893 51.3625C266.823 49.5435 266.181 47.8309 265.967 46.2258C265.646 44.0324 265.592 41.7319 265.806 39.3245C266.02 36.9169 266.796 34.6964 268.134 32.6633C269.525 30.6302 271.611 28.9442 274.394 27.6067C277.229 26.2693 281.054 25.6009 285.869 25.6008ZM285.869 29.9348C284.585 29.6139 283.489 29.667 282.579 30.095C282.151 30.309 281.616 30.7637 280.974 31.4592C280.332 32.1547 279.69 33.0377 279.048 34.1077C278.406 35.1242 277.817 36.3014 277.282 37.6389C276.801 38.9764 276.453 40.3673 276.239 41.8118C276.025 43.2563 275.971 44.8085 276.078 46.467C276.239 48.1254 276.587 49.7035 277.122 51.2014C277.657 52.646 278.406 53.9038 279.369 54.9739C280.386 55.9902 281.669 56.5789 283.221 56.7395C283.809 56.8465 284.612 56.7127 285.629 56.3381C286.645 55.9101 287.635 55.2408 288.598 54.3313C289.614 53.4219 290.497 52.2719 291.246 50.8811C292.049 49.4366 292.531 47.6974 292.691 45.6643C292.852 43.6849 292.852 41.8658 292.691 40.2073C292.584 38.5487 292.343 37.1038 291.969 35.8733C291.594 34.5892 291.166 33.5459 290.685 32.7434C290.203 31.941 289.695 31.3789 289.16 31.0579C288.251 30.5763 287.153 30.2023 285.869 29.9348Z" fill="#BD7A3F"/>
<path d="M285.869 25.6008C287.26 25.6008 288.705 25.8685 290.203 26.4036C291.701 26.8851 293.146 27.5268 294.537 28.3293C295.928 29.0784 297.185 29.9081 298.309 30.8176C299.486 31.6737 300.449 32.5024 301.198 33.3049C302.536 34.7494 303.445 36.7024 303.927 39.1633C304.462 41.5709 304.568 44.0591 304.247 46.6272C303.926 49.1418 303.177 51.5227 302 53.7698C300.823 56.0168 299.191 57.6753 297.104 58.7454C295.607 59.4943 294.136 60.083 292.691 60.511C291.247 60.939 289.855 61.2599 288.518 61.4739C287.18 61.6879 285.923 61.7952 284.746 61.7952C283.569 61.7952 282.552 61.7686 281.696 61.7151C280.091 61.6081 278.406 61.046 276.641 60.0295C274.929 59.0131 273.297 57.756 271.745 56.2581C270.247 54.76 268.963 53.128 267.893 51.3625C266.823 49.5435 266.181 47.8309 265.967 46.2258C265.646 44.0324 265.592 41.7319 265.806 39.3245C266.02 36.9169 266.796 34.6964 268.134 32.6633C269.525 30.6302 271.611 28.9442 274.394 27.6067C277.229 26.2693 281.054 25.6009 285.869 25.6008ZM285.869 29.9348C284.585 29.6139 283.489 29.667 282.579 30.095C282.151 30.309 281.616 30.7637 280.974 31.4592C280.332 32.1547 279.69 33.0377 279.048 34.1077C278.406 35.1242 277.817 36.3014 277.282 37.6389C276.801 38.9764 276.453 40.3673 276.239 41.8118C276.025 43.2563 275.971 44.8085 276.078 46.467C276.239 48.1254 276.587 49.7035 277.122 51.2014C277.657 52.646 278.406 53.9038 279.369 54.9739C280.386 55.9902 281.669 56.5789 283.221 56.7395C283.809 56.8465 284.612 56.7127 285.629 56.3381C286.645 55.9101 287.635 55.2408 288.598 54.3313C289.614 53.4219 290.497 52.2719 291.246 50.8811C292.049 49.4366 292.531 47.6974 292.691 45.6643C292.852 43.6849 292.852 41.8658 292.691 40.2073C292.584 38.5487 292.343 37.1038 291.969 35.8733C291.594 34.5892 291.166 33.5459 290.685 32.7434C290.203 31.941 289.695 31.3789 289.16 31.0579C288.251 30.5763 287.153 30.2023 285.869 29.9348Z" stroke="black"/>
<path d="M243.755 21.9092C245.895 22.0162 247.875 22.3636 249.694 22.9521C251.567 23.5407 253.172 24.2365 254.51 25.0391C255.901 25.788 257.024 26.5904 257.88 27.4463C258.736 28.3021 259.244 29.0514 259.404 29.6934C260.046 31.7798 260.208 33.7062 259.887 35.4717C259.566 37.1838 259.138 38.8697 258.603 40.5283C258.121 42.1332 257.693 43.7379 257.318 45.3428C256.997 46.9478 257.131 48.687 257.72 50.5596C257.934 51.041 258.147 51.5225 258.361 52.0039C258.575 52.4319 258.843 52.8601 259.164 53.2881C259.485 53.7161 259.859 54.0645 260.287 54.332C259.699 54.2786 259.111 54.251 258.522 54.251C257.934 54.1975 257.398 54.1443 256.917 54.0908C256.328 54.0373 255.793 53.9842 255.312 53.9307C254.777 53.8772 254.054 53.8496 253.145 53.8496C251.593 53.8496 249.185 53.9303 245.922 54.0908C246.403 52.9674 246.778 52.0312 247.046 51.2822C247.367 50.4797 247.635 49.837 247.849 49.3555C248.063 48.7672 248.223 48.3121 248.33 47.9912C248.972 46.4397 249.346 44.6738 249.453 42.6943C249.614 40.7149 249.48 38.7087 249.052 36.6758C248.891 35.9803 248.624 35.1505 248.25 34.1875C247.875 33.2245 247.367 32.2884 246.725 31.3789C246.136 30.4694 245.414 29.6937 244.558 29.0518C243.755 28.4098 242.819 28.0347 241.749 27.9277C240.679 27.8207 239.475 28.0885 238.138 28.7305C236.854 29.3725 235.463 30.5498 233.965 32.2617C232.841 33.7063 231.958 35.472 231.316 37.5586C230.728 39.3242 230.326 41.5446 230.112 44.2197C229.898 46.8413 230.219 49.9181 231.075 53.4492C230.326 53.3422 229.63 53.2881 228.988 53.2881C228.347 53.2346 227.812 53.1814 227.384 53.1279C226.849 53.0744 226.367 53.0203 225.939 52.9668C225.458 52.9668 224.923 52.9402 224.334 52.8867H222.328C221.526 52.8332 220.589 52.7801 219.519 52.7266C219.893 50.9612 220.161 49.4097 220.321 48.0723C220.535 46.6813 220.696 45.5306 220.803 44.6211C220.91 43.5512 220.963 42.6416 220.963 41.8926C220.909 40.9832 220.856 39.913 220.803 38.6826C220.803 37.3986 220.75 36.1407 220.643 34.9102C220.589 33.6263 220.508 32.503 220.401 31.54C220.294 30.5236 220.16 29.8011 220 29.373C219.786 28.945 219.492 28.4903 219.117 28.0088C218.368 27.0993 217.272 26.2164 215.827 25.3604C217.058 25.0928 218.101 24.8783 218.957 24.7178C219.867 24.5038 220.616 24.3168 221.204 24.1562C221.846 23.9422 222.408 23.7552 222.89 23.5947C223.318 23.4343 223.826 23.2738 224.414 23.1133C224.896 23.0063 225.484 22.8724 226.18 22.7119C226.875 22.5514 227.678 22.3644 228.588 22.1504L228.347 29.4531C230.059 27.42 231.798 25.8954 233.563 24.8789C235.329 23.8624 236.988 23.1399 238.539 22.7119C240.304 22.177 242.043 21.9092 243.755 21.9092Z" fill="#BD7A3F"/>
<path d="M243.755 21.9092C245.895 22.0162 247.875 22.3636 249.694 22.9521C251.567 23.5407 253.172 24.2365 254.51 25.0391C255.901 25.788 257.024 26.5904 257.88 27.4463C258.736 28.3021 259.244 29.0514 259.404 29.6934C260.046 31.7798 260.208 33.7062 259.887 35.4717C259.566 37.1838 259.138 38.8697 258.603 40.5283C258.121 42.1332 257.693 43.7379 257.318 45.3428C256.997 46.9478 257.131 48.687 257.72 50.5596C257.934 51.041 258.147 51.5225 258.361 52.0039C258.575 52.4319 258.843 52.8601 259.164 53.2881C259.485 53.7161 259.859 54.0645 260.287 54.332C259.699 54.2786 259.111 54.251 258.522 54.251C257.934 54.1975 257.398 54.1443 256.917 54.0908C256.328 54.0373 255.793 53.9842 255.312 53.9307C254.777 53.8772 254.054 53.8496 253.145 53.8496C251.593 53.8496 249.185 53.9303 245.922 54.0908C246.403 52.9674 246.778 52.0312 247.046 51.2822C247.367 50.4797 247.635 49.837 247.849 49.3555C248.063 48.7672 248.223 48.3121 248.33 47.9912C248.972 46.4397 249.346 44.6738 249.453 42.6943C249.614 40.7149 249.48 38.7087 249.052 36.6758C248.891 35.9803 248.624 35.1505 248.25 34.1875C247.875 33.2245 247.367 32.2884 246.725 31.3789C246.136 30.4694 245.414 29.6937 244.558 29.0518C243.755 28.4098 242.819 28.0347 241.749 27.9277C240.679 27.8207 239.475 28.0885 238.138 28.7305C236.854 29.3725 235.463 30.5498 233.965 32.2617C232.841 33.7063 231.958 35.472 231.316 37.5586C230.728 39.3242 230.326 41.5446 230.112 44.2197C229.898 46.8413 230.219 49.9181 231.075 53.4492C230.326 53.3422 229.63 53.2881 228.988 53.2881C228.347 53.2346 227.812 53.1814 227.384 53.1279C226.849 53.0744 226.367 53.0203 225.939 52.9668C225.458 52.9668 224.923 52.9402 224.334 52.8867H222.328C221.526 52.8332 220.589 52.7801 219.519 52.7266C219.893 50.9612 220.161 49.4097 220.321 48.0723C220.535 46.6813 220.696 45.5306 220.803 44.6211C220.91 43.5512 220.963 42.6416 220.963 41.8926C220.909 40.9832 220.856 39.913 220.803 38.6826C220.803 37.3986 220.75 36.1407 220.643 34.9102C220.589 33.6263 220.508 32.503 220.401 31.54C220.294 30.5236 220.16 29.8011 220 29.373C219.786 28.945 219.492 28.4903 219.117 28.0088C218.368 27.0993 217.272 26.2164 215.827 25.3604C217.058 25.0928 218.101 24.8783 218.957 24.7178C219.867 24.5038 220.616 24.3168 221.204 24.1562C221.846 23.9422 222.408 23.7552 222.89 23.5947C223.318 23.4343 223.826 23.2738 224.414 23.1133C224.896 23.0063 225.484 22.8724 226.18 22.7119C226.875 22.5514 227.678 22.3644 228.588 22.1504L228.347 29.4531C230.059 27.42 231.798 25.8954 233.563 24.8789C235.329 23.8624 236.988 23.1399 238.539 22.7119C240.304 22.177 242.043 21.9092 243.755 21.9092Z" stroke="black"/>
<path d="M168.256 4.25342C170.075 4.52093 171.68 4.70794 173.071 4.81494C174.516 4.92194 175.72 5.02923 176.683 5.13623C177.806 5.24321 178.769 5.29637 179.571 5.29639H182.701C184.788 5.29639 188.239 5.21666 193.055 5.05615C191.878 5.43064 190.887 5.9652 190.085 6.66064C189.336 7.3561 188.721 8.07869 188.239 8.82764C187.651 9.68363 187.223 10.5666 186.955 11.4761C186.634 12.5996 186.34 14.0977 186.072 15.9702C185.805 17.6288 185.537 19.7961 185.27 22.4712C185.056 25.1462 184.842 28.49 184.628 32.5024C186.928 29.8811 188.935 27.5539 190.646 25.521C192.412 23.4881 193.937 21.6955 195.221 20.144C196.505 18.5925 197.576 17.2549 198.432 16.1313C199.341 15.0078 200.09 14.0442 200.679 13.2417C202.07 11.4229 202.872 10.1923 203.086 9.55029C203.139 9.17583 203.113 8.72096 203.006 8.18604C202.899 7.75802 202.738 7.24917 202.524 6.66064C202.31 6.0188 201.989 5.32349 201.562 4.57471C203.701 4.6817 205.521 4.76144 207.019 4.81494C208.57 4.86843 209.854 4.92258 210.87 4.97607C212.047 5.02958 213.011 5.05615 213.76 5.05615H221.945C223.925 5.00265 226.413 4.94852 229.409 4.89502C227.43 5.37654 225.557 6.01924 223.791 6.82178C222.026 7.62422 220.448 8.39997 219.057 9.14893C217.452 10.0584 215.953 10.9946 214.562 11.9575C213.171 13.0276 211.619 14.2854 209.907 15.73C208.463 16.9605 206.777 18.4853 204.852 20.3042C202.925 22.0698 200.839 24.1298 198.592 26.4839C200.999 31.192 203.086 35.071 204.852 38.1206C206.671 41.1166 208.195 43.5242 209.426 45.3433C210.817 47.4834 211.994 49.1152 212.957 50.2388C213.92 51.2553 215.044 52.2986 216.328 53.3687C217.398 54.2781 218.736 55.295 220.341 56.4185C221.946 57.4884 223.792 58.5319 225.878 59.5483L203.006 60.6714C203.327 60.2435 203.514 59.7353 203.567 59.147C203.674 58.505 203.728 57.9163 203.728 57.3813C203.728 56.7929 203.674 56.1509 203.567 55.4556C203.353 54.5995 202.791 53.2078 201.882 51.2817C201.133 49.6233 199.983 47.296 198.432 44.3003C196.88 41.2507 194.739 37.2378 192.011 32.2622L185.189 39.4048C184.922 41.1167 184.788 42.6681 184.788 44.0591C184.788 45.4501 184.841 46.6007 184.948 47.5103C185.109 48.6337 185.323 49.5965 185.591 50.3989C185.912 51.2014 186.367 52.111 186.955 53.1274C187.437 54.037 188.078 55.1078 188.881 56.3384C189.683 57.5689 190.7 58.9332 191.931 60.4312C190.7 60.1102 189.47 59.8956 188.239 59.7886C187.009 59.6281 185.885 59.5218 184.868 59.4683C183.691 59.4148 182.568 59.4414 181.498 59.5483C180.375 59.6553 179.063 59.8158 177.565 60.0298C176.281 60.2438 174.703 60.5115 172.83 60.8325C170.958 61.1535 168.818 61.5542 166.41 62.0356C167.587 61.3401 168.523 60.5911 169.219 59.7886C169.914 58.986 170.476 58.2105 170.904 57.4614C171.386 56.6054 171.707 55.7757 171.867 54.9731C171.974 54.2774 172.055 52.7792 172.108 50.479C172.215 48.1785 172.269 45.5031 172.269 42.4536C172.322 39.3507 172.322 36.0874 172.269 32.6636C172.215 29.2394 172.162 26.0288 172.108 23.0327C172.055 20.0366 171.974 17.4953 171.867 15.4087C171.814 13.2686 171.761 11.9576 171.707 11.4761C171.547 10.7271 171.332 9.92481 171.064 9.06885C170.797 8.31993 170.423 7.54411 169.941 6.7417C169.513 5.88566 168.951 5.05595 168.256 4.25342Z" fill="#BD7A3F"/>
<path d="M168.256 4.25342C170.075 4.52093 171.68 4.70794 173.071 4.81494C174.516 4.92194 175.72 5.02923 176.683 5.13623C177.806 5.24321 178.769 5.29637 179.571 5.29639H182.701C184.788 5.29639 188.239 5.21666 193.055 5.05615C191.878 5.43064 190.887 5.9652 190.085 6.66064C189.336 7.3561 188.721 8.07869 188.239 8.82764C187.651 9.68363 187.223 10.5666 186.955 11.4761C186.634 12.5996 186.34 14.0977 186.072 15.9702C185.805 17.6288 185.537 19.7961 185.27 22.4712C185.056 25.1462 184.842 28.49 184.628 32.5024C186.928 29.8811 188.935 27.5539 190.646 25.521C192.412 23.4881 193.937 21.6955 195.221 20.144C196.505 18.5925 197.576 17.2549 198.432 16.1313C199.341 15.0078 200.09 14.0442 200.679 13.2417C202.07 11.4229 202.872 10.1923 203.086 9.55029C203.139 9.17583 203.113 8.72096 203.006 8.18604C202.899 7.75802 202.738 7.24917 202.524 6.66064C202.31 6.0188 201.989 5.32349 201.562 4.57471C203.701 4.6817 205.521 4.76144 207.019 4.81494C208.57 4.86843 209.854 4.92258 210.87 4.97607C212.047 5.02958 213.011 5.05615 213.76 5.05615H221.945C223.925 5.00265 226.413 4.94852 229.409 4.89502C227.43 5.37654 225.557 6.01924 223.791 6.82178C222.026 7.62422 220.448 8.39997 219.057 9.14893C217.452 10.0584 215.953 10.9946 214.562 11.9575C213.171 13.0276 211.619 14.2854 209.907 15.73C208.463 16.9605 206.777 18.4853 204.852 20.3042C202.925 22.0698 200.839 24.1298 198.592 26.4839C200.999 31.192 203.086 35.071 204.852 38.1206C206.671 41.1166 208.195 43.5242 209.426 45.3433C210.817 47.4834 211.994 49.1152 212.957 50.2388C213.92 51.2553 215.044 52.2986 216.328 53.3687C217.398 54.2781 218.736 55.295 220.341 56.4185C221.946 57.4884 223.792 58.5319 225.878 59.5483L203.006 60.6714C203.327 60.2435 203.514 59.7353 203.567 59.147C203.674 58.505 203.728 57.9163 203.728 57.3813C203.728 56.7929 203.674 56.1509 203.567 55.4556C203.353 54.5995 202.791 53.2078 201.882 51.2817C201.133 49.6233 199.983 47.296 198.432 44.3003C196.88 41.2507 194.739 37.2378 192.011 32.2622L185.189 39.4048C184.922 41.1167 184.788 42.6681 184.788 44.0591C184.788 45.4501 184.841 46.6007 184.948 47.5103C185.109 48.6337 185.323 49.5965 185.591 50.3989C185.912 51.2014 186.367 52.111 186.955 53.1274C187.437 54.037 188.078 55.1078 188.881 56.3384C189.683 57.5689 190.7 58.9332 191.931 60.4312C190.7 60.1102 189.47 59.8956 188.239 59.7886C187.009 59.6281 185.885 59.5218 184.868 59.4683C183.691 59.4148 182.568 59.4414 181.498 59.5483C180.375 59.6553 179.063 59.8158 177.565 60.0298C176.281 60.2438 174.703 60.5115 172.83 60.8325C170.958 61.1535 168.818 61.5542 166.41 62.0356C167.587 61.3401 168.523 60.5911 169.219 59.7886C169.914 58.986 170.476 58.2105 170.904 57.4614C171.386 56.6054 171.707 55.7757 171.867 54.9731C171.974 54.2774 172.055 52.7792 172.108 50.479C172.215 48.1785 172.269 45.5031 172.269 42.4536C172.322 39.3507 172.322 36.0874 172.269 32.6636C172.215 29.2394 172.162 26.0288 172.108 23.0327C172.055 20.0366 171.974 17.4953 171.867 15.4087C171.814 13.2686 171.761 11.9576 171.707 11.4761C171.547 10.7271 171.332 9.92481 171.064 9.06885C170.797 8.31993 170.423 7.54411 169.941 6.7417C169.513 5.88566 168.951 5.05595 168.256 4.25342Z" stroke="black"/>
<path d="M163.54 25.8412C162.684 29.1047 162.042 31.8873 161.614 34.1879C161.24 36.4884 160.999 38.4146 160.892 39.9662C160.678 41.7317 160.624 43.2298 160.731 44.4603C160.892 45.5839 161.16 46.7876 161.534 48.0717C161.855 49.1416 162.337 50.3721 162.979 51.7631C163.621 53.1541 164.477 54.5458 165.547 55.9369C164.905 55.7229 164.209 55.5625 163.46 55.4554C162.711 55.3484 162.015 55.2677 161.373 55.2142C160.624 55.1607 159.875 55.1607 159.126 55.2142C158.377 55.2677 157.548 55.3485 156.639 55.4554C155.89 55.5625 154.979 55.6963 153.909 55.8568C152.839 56.0173 151.716 56.231 150.539 56.4984C151.342 54.0908 151.957 52.0042 152.385 50.2386C152.866 48.4731 153.214 47.0016 153.428 45.8246C153.642 44.4338 153.776 43.3104 153.829 42.4545V34.8304C153.829 33.5464 153.803 32.4224 153.749 31.4594C153.696 30.4428 153.588 29.8011 153.428 29.5336L152.626 28.7308C152.305 28.4633 151.823 28.0883 151.181 27.6068C150.592 27.0719 149.79 26.4299 148.773 25.681L163.54 25.8412ZM154.472 13.3217C155.595 12.7334 156.718 12.5728 157.842 12.8402C159.019 13.1077 159.928 13.6166 160.57 14.3656C161.212 15.1146 161.427 15.9975 161.213 17.014C161.052 18.0305 160.196 19.0198 158.645 19.9828C157.093 20.8923 155.729 21.2141 154.552 20.9467C153.375 20.6791 152.545 20.1171 152.063 19.2611C151.582 18.4051 151.502 17.4149 151.823 16.2914C152.144 15.1144 153.027 14.1242 154.472 13.3217Z" fill="#BD7A3F"/>
<path d="M163.54 25.8412C162.684 29.1047 162.042 31.8873 161.614 34.1879C161.24 36.4884 160.999 38.4146 160.892 39.9662C160.678 41.7317 160.624 43.2298 160.731 44.4603C160.892 45.5839 161.16 46.7876 161.534 48.0717C161.855 49.1416 162.337 50.3721 162.979 51.7631C163.621 53.1541 164.477 54.5458 165.547 55.9369C164.905 55.7229 164.209 55.5625 163.46 55.4554C162.711 55.3484 162.015 55.2677 161.373 55.2142C160.624 55.1607 159.875 55.1607 159.126 55.2142C158.377 55.2677 157.548 55.3485 156.639 55.4554C155.89 55.5625 154.979 55.6963 153.909 55.8568C152.839 56.0173 151.716 56.231 150.539 56.4984C151.342 54.0908 151.957 52.0042 152.385 50.2386C152.866 48.4731 153.214 47.0016 153.428 45.8246C153.642 44.4338 153.776 43.3104 153.829 42.4545V34.8304C153.829 33.5464 153.803 32.4224 153.749 31.4594C153.696 30.4428 153.588 29.8011 153.428 29.5336L152.626 28.7308C152.305 28.4633 151.823 28.0883 151.181 27.6068C150.592 27.0719 149.79 26.4299 148.773 25.681L163.54 25.8412ZM154.472 13.3217C155.595 12.7334 156.718 12.5728 157.842 12.8402C159.019 13.1077 159.928 13.6166 160.57 14.3656C161.212 15.1146 161.427 15.9975 161.213 17.014C161.052 18.0305 160.196 19.0198 158.645 19.9828C157.093 20.8923 155.729 21.2141 154.552 20.9467C153.375 20.6791 152.545 20.1171 152.063 19.2611C151.582 18.4051 151.502 17.4149 151.823 16.2914C152.144 15.1144 153.027 14.1242 154.472 13.3217Z" stroke="black"/>
<path d="M111.314 20.1436C110.887 20.6784 110.539 21.16 110.271 21.5879C110.058 21.9622 109.844 22.2834 109.63 22.5508C109.416 22.8717 109.228 23.1661 109.067 23.4336C108.907 23.7011 108.746 24.1027 108.586 24.6377C108.479 25.0657 108.345 25.6809 108.185 26.4834C108.024 27.2324 107.89 28.2226 107.783 29.4531C110.672 27.6341 113.321 26.2699 115.729 25.3604C118.19 24.4508 120.33 23.8081 122.149 23.4336C124.289 23.0057 126.215 22.8452 127.927 22.9521C130.067 23.1127 132.047 23.5949 133.866 24.3975C135.739 25.1465 137.424 26.056 138.922 27.126C140.42 28.196 141.731 29.3732 142.854 30.6572C143.978 31.9412 144.861 33.2249 145.503 34.5088C145.931 35.3648 146.199 36.5953 146.306 38.2002C146.466 39.8053 146.306 41.5178 145.824 43.3369C145.343 45.156 144.486 46.9483 143.256 48.7139C142.079 50.4259 140.393 51.7901 138.199 52.8066C134.401 54.5186 130.629 55.4823 126.884 55.6963C125.279 55.8033 123.62 55.7492 121.908 55.5352C120.25 55.3212 118.565 54.8664 116.853 54.1709C115.194 53.4754 113.589 52.4852 112.037 51.2012C110.486 49.8636 109.067 48.1519 107.783 46.0654C107.355 48.794 107.034 51.1749 106.82 53.208C106.66 55.1875 106.554 56.8461 106.5 58.1836C106.446 59.7352 106.446 61.0462 106.5 62.1162C106.607 63.1862 106.821 64.3369 107.142 65.5674C107.409 66.6373 107.783 67.8679 108.265 69.2588C108.8 70.7034 109.469 72.2014 110.271 73.7529C109.95 73.6459 109.496 73.5652 108.907 73.5117C108.372 73.5117 107.81 73.5658 107.222 73.6729C106.58 73.7798 105.857 73.8862 105.055 73.9932C104.306 74.1537 103.477 74.3417 102.567 74.5557C101.818 74.7162 100.935 74.9032 99.9189 75.1172C98.9559 75.3847 97.9658 75.679 96.9492 76C97.5376 75.3046 97.9925 74.5021 98.3135 73.5928C98.688 72.7367 98.9823 71.9336 99.1963 71.1846C99.4103 70.2751 99.5973 69.3656 99.7578 68.4561C99.8113 67.6535 99.892 66.1288 99.999 63.8818C100.16 61.6883 100.293 59.1468 100.4 56.2578C100.507 53.3152 100.587 50.2385 100.641 47.0283C100.748 43.8182 100.802 40.8487 100.802 38.1201C100.855 35.3381 100.855 32.9837 100.802 31.0576C100.748 29.1319 100.641 28.0086 100.48 27.6875C100.266 27.313 99.8649 26.9114 99.2764 26.4834C98.7949 26.109 98.0996 25.7347 97.1904 25.3604C96.3344 24.9858 95.1838 24.5843 93.7393 24.1562C95.4511 23.8888 96.8421 23.6751 97.9121 23.5146C99.0355 23.3007 99.9451 23.1392 100.641 23.0322C101.443 22.8717 102.059 22.7388 102.487 22.6318C102.915 22.5248 103.531 22.3634 104.333 22.1494C105.028 21.9354 105.938 21.6952 107.062 21.4277C108.185 21.1067 109.603 20.6785 111.314 20.1436ZM127.687 26.1621C126.028 26.1621 124.396 26.5903 122.791 27.4463C121.186 28.3023 119.715 29.3732 118.377 30.6572C117.04 31.9412 115.862 33.3321 114.846 34.8301C113.883 36.2746 113.214 37.5857 112.84 38.7627C112.465 39.9932 112.385 41.1971 112.599 42.374C112.813 43.551 113.348 44.6476 114.204 45.6641C115.114 46.6805 116.371 47.5901 117.976 48.3926C119.634 49.1416 121.694 49.7036 124.155 50.0781C126.616 50.4526 128.489 50.3995 129.773 49.918C131.057 49.4365 131.994 48.6873 132.582 47.6709C133.224 46.6009 133.652 45.3696 133.866 43.9785C134.08 42.5341 134.348 41.0358 134.669 39.4844C134.99 37.9864 134.936 36.4616 134.508 34.9102C134.08 33.3051 133.465 31.8602 132.662 30.5762C131.913 29.2922 131.057 28.2488 130.094 27.4463C129.184 26.5905 128.382 26.1621 127.687 26.1621Z" fill="#BD7A3F"/>
<path d="M111.314 20.1436C110.887 20.6784 110.539 21.16 110.271 21.5879C110.058 21.9622 109.844 22.2834 109.63 22.5508C109.416 22.8717 109.228 23.1661 109.067 23.4336C108.907 23.7011 108.746 24.1027 108.586 24.6377C108.479 25.0657 108.345 25.6809 108.185 26.4834C108.024 27.2324 107.89 28.2226 107.783 29.4531C110.672 27.6341 113.321 26.2699 115.729 25.3604C118.19 24.4508 120.33 23.8081 122.149 23.4336C124.289 23.0057 126.215 22.8452 127.927 22.9521C130.067 23.1127 132.047 23.5949 133.866 24.3975C135.739 25.1465 137.424 26.056 138.922 27.126C140.42 28.196 141.731 29.3732 142.854 30.6572C143.978 31.9412 144.861 33.2249 145.503 34.5088C145.931 35.3648 146.199 36.5953 146.306 38.2002C146.466 39.8053 146.306 41.5178 145.824 43.3369C145.343 45.156 144.486 46.9483 143.256 48.7139C142.079 50.4259 140.393 51.7901 138.199 52.8066C134.401 54.5186 130.629 55.4823 126.884 55.6963C125.279 55.8033 123.62 55.7492 121.908 55.5352C120.25 55.3212 118.565 54.8664 116.853 54.1709C115.194 53.4754 113.589 52.4852 112.037 51.2012C110.486 49.8636 109.067 48.1519 107.783 46.0654C107.355 48.794 107.034 51.1749 106.82 53.208C106.66 55.1875 106.554 56.8461 106.5 58.1836C106.446 59.7352 106.446 61.0462 106.5 62.1162C106.607 63.1862 106.821 64.3369 107.142 65.5674C107.409 66.6373 107.783 67.8679 108.265 69.2588C108.8 70.7034 109.469 72.2014 110.271 73.7529C109.95 73.6459 109.496 73.5652 108.907 73.5117C108.372 73.5117 107.81 73.5658 107.222 73.6729C106.58 73.7798 105.857 73.8862 105.055 73.9932C104.306 74.1537 103.477 74.3417 102.567 74.5557C101.818 74.7162 100.935 74.9032 99.9189 75.1172C98.9559 75.3847 97.9658 75.679 96.9492 76C97.5376 75.3046 97.9925 74.5021 98.3135 73.5928C98.688 72.7367 98.9823 71.9336 99.1963 71.1846C99.4103 70.2751 99.5973 69.3656 99.7578 68.4561C99.8113 67.6535 99.892 66.1288 99.999 63.8818C100.16 61.6883 100.293 59.1468 100.4 56.2578C100.507 53.3152 100.587 50.2385 100.641 47.0283C100.748 43.8182 100.802 40.8487 100.802 38.1201C100.855 35.3381 100.855 32.9837 100.802 31.0576C100.748 29.1319 100.641 28.0086 100.48 27.6875C100.266 27.313 99.8649 26.9114 99.2764 26.4834C98.7949 26.109 98.0996 25.7347 97.1904 25.3604C96.3344 24.9858 95.1838 24.5843 93.7393 24.1562C95.4511 23.8888 96.8421 23.6751 97.9121 23.5146C99.0355 23.3007 99.9451 23.1392 100.641 23.0322C101.443 22.8717 102.059 22.7388 102.487 22.6318C102.915 22.5248 103.531 22.3634 104.333 22.1494C105.028 21.9354 105.938 21.6952 107.062 21.4277C108.185 21.1067 109.603 20.6785 111.314 20.1436ZM127.687 26.1621C126.028 26.1621 124.396 26.5903 122.791 27.4463C121.186 28.3023 119.715 29.3732 118.377 30.6572C117.04 31.9412 115.862 33.3321 114.846 34.8301C113.883 36.2746 113.214 37.5857 112.84 38.7627C112.465 39.9932 112.385 41.1971 112.599 42.374C112.813 43.551 113.348 44.6476 114.204 45.6641C115.114 46.6805 116.371 47.5901 117.976 48.3926C119.634 49.1416 121.694 49.7036 124.155 50.0781C126.616 50.4526 128.489 50.3995 129.773 49.918C131.057 49.4365 131.994 48.6873 132.582 47.6709C133.224 46.6009 133.652 45.3696 133.866 43.9785C134.08 42.5341 134.348 41.0358 134.669 39.4844C134.99 37.9864 134.936 36.4616 134.508 34.9102C134.08 33.3051 133.465 31.8602 132.662 30.5762C131.913 29.2922 131.057 28.2488 130.094 27.4463C129.184 26.5905 128.382 26.1621 127.687 26.1621Z" stroke="black"/>
<path d="M92.0732 25.8412C91.2172 29.1047 90.5755 31.8873 90.1475 34.1879C89.773 36.4884 89.5318 38.4146 89.4248 39.9662C89.2108 41.7317 89.1577 43.2298 89.2646 44.4603C89.4252 45.5839 89.6929 46.7876 90.0674 48.0717C90.3884 49.1416 90.8698 50.3721 91.5117 51.7631C92.1537 53.1541 93.01 54.5458 94.0801 55.9369C93.4381 55.7229 92.7421 55.5625 91.9932 55.4554C91.2441 55.3484 90.5483 55.2677 89.9062 55.2142C89.1573 55.1607 88.4081 55.1607 87.6592 55.2142C86.9103 55.2677 86.0812 55.3485 85.1719 55.4554C84.4228 55.5625 83.5124 55.6963 82.4424 55.8568C81.3725 56.0173 80.2491 56.231 79.0723 56.4984C79.8748 54.0908 80.49 52.0042 80.918 50.2386C81.3995 48.4731 81.7469 47.0016 81.9609 45.8246C82.1749 44.4338 82.3088 43.3104 82.3623 42.4545V34.8304C82.3623 33.5464 82.3357 32.4224 82.2822 31.4594C82.2287 30.4428 82.1214 29.8011 81.9609 29.5336L81.1592 28.7308C80.8382 28.4633 80.3559 28.0883 79.7139 27.6068C79.1254 27.0719 78.3229 26.4299 77.3066 25.681L92.0732 25.8412ZM83.0049 13.3217C84.1282 12.7334 85.2517 12.5728 86.375 12.8402C87.552 13.1077 88.4615 13.6166 89.1035 14.3656C89.7455 15.1146 89.9601 15.9975 89.7461 17.014C89.5855 18.0305 88.7291 19.0198 87.1777 19.9828C85.6262 20.8923 84.262 21.2141 83.085 20.9467C81.9079 20.6791 81.0782 20.1171 80.5967 19.2611C80.1152 18.4051 80.0354 17.4149 80.3564 16.2914C80.6775 15.1144 81.5604 14.1242 83.0049 13.3217Z" fill="#BD7A3F"/>
<path d="M92.0732 25.8412C91.2172 29.1047 90.5755 31.8873 90.1475 34.1879C89.773 36.4884 89.5318 38.4146 89.4248 39.9662C89.2108 41.7317 89.1577 43.2298 89.2646 44.4603C89.4252 45.5839 89.6929 46.7876 90.0674 48.0717C90.3884 49.1416 90.8698 50.3721 91.5117 51.7631C92.1537 53.1541 93.01 54.5458 94.0801 55.9369C93.4381 55.7229 92.7421 55.5625 91.9932 55.4554C91.2441 55.3484 90.5483 55.2677 89.9062 55.2142C89.1573 55.1607 88.4081 55.1607 87.6592 55.2142C86.9103 55.2677 86.0812 55.3485 85.1719 55.4554C84.4228 55.5625 83.5124 55.6963 82.4424 55.8568C81.3725 56.0173 80.2491 56.231 79.0723 56.4984C79.8748 54.0908 80.49 52.0042 80.918 50.2386C81.3995 48.4731 81.7469 47.0016 81.9609 45.8246C82.1749 44.4338 82.3088 43.3104 82.3623 42.4545V34.8304C82.3623 33.5464 82.3357 32.4224 82.2822 31.4594C82.2287 30.4428 82.1214 29.8011 81.9609 29.5336L81.1592 28.7308C80.8382 28.4633 80.3559 28.0883 79.7139 27.6068C79.1254 27.0719 78.3229 26.4299 77.3066 25.681L92.0732 25.8412ZM83.0049 13.3217C84.1282 12.7334 85.2517 12.5728 86.375 12.8402C87.552 13.1077 88.4615 13.6166 89.1035 14.3656C89.7455 15.1146 89.9601 15.9975 89.7461 17.014C89.5855 18.0305 88.7291 19.0198 87.1777 19.9828C85.6262 20.8923 84.262 21.2141 83.085 20.9467C81.9079 20.6791 81.0782 20.1171 80.5967 19.2611C80.1152 18.4051 80.0354 17.4149 80.3564 16.2914C80.6775 15.1144 81.5604 14.1242 83.0049 13.3217Z" stroke="black"/>
<path d="M72.6709 0C72.4034 1.55153 72.1898 3.04961 72.0293 4.49414C71.8688 5.93869 71.7349 7.27629 71.6279 8.50684C71.5209 9.89789 71.4668 11.2355 71.4668 12.5195C71.1993 15.1411 71.0389 18.0034 70.9854 21.1064C70.9854 24.1561 71.0129 27.2594 71.0664 30.416C71.1199 33.5727 71.2262 36.6494 71.3867 39.6455C71.5472 42.6415 71.7077 45.37 71.8682 47.8311C72.0822 50.2387 72.2702 52.2987 72.4307 54.0107C72.6447 55.6692 72.8051 56.7392 72.9121 57.2207C73.1261 58.0231 73.3397 58.7989 73.5537 59.5479C73.7677 60.1899 74.0089 60.8592 74.2764 61.5547C74.5439 62.3036 74.8648 62.8924 75.2393 63.3203H67.4541C66.7587 63.3203 66.0901 63.3469 65.4482 63.4004C64.8598 63.4539 64.2445 63.5071 63.6025 63.5605C62.9605 63.6141 62.3719 63.6948 61.8369 63.8018C62.3719 62.9993 62.8001 62.2502 63.1211 61.5547C63.4421 60.8592 63.7098 60.2706 63.9238 59.7891C64.1378 59.2005 64.2983 58.6651 64.4053 58.1836C64.4588 57.8624 64.4854 56.9262 64.4854 55.375C64.4854 53.8235 64.4312 51.8706 64.3242 49.5166C64.2707 47.1625 64.191 44.5139 64.084 41.5713C64.0305 38.6287 63.9232 35.6326 63.7627 32.583C63.6557 29.5334 63.5218 26.5639 63.3613 23.6748C63.2543 20.7859 63.148 18.1911 63.041 15.8906C62.934 13.5367 62.8267 11.6103 62.7197 10.1123C62.6127 8.61432 62.532 7.75801 62.4785 7.54395C62.3715 7.22297 62.1845 6.90203 61.917 6.58105C61.382 5.93905 60.4725 5.32386 59.1885 4.73535C61.9171 4.03983 64.0037 3.47782 65.4482 3.0498C66.3043 2.8358 67.0533 2.62124 67.6953 2.40723C68.2838 2.19323 68.8724 1.97962 69.4609 1.76562C69.9425 1.55162 70.4779 1.31048 71.0664 1.04297C71.6547 0.722047 72.1895 0.374389 72.6709 0Z" fill="#BD7A3F"/>
<path d="M72.6709 0C72.4034 1.55153 72.1898 3.04961 72.0293 4.49414C71.8688 5.93869 71.7349 7.27629 71.6279 8.50684C71.5209 9.89789 71.4668 11.2355 71.4668 12.5195C71.1993 15.1411 71.0389 18.0034 70.9854 21.1064C70.9854 24.1561 71.0129 27.2594 71.0664 30.416C71.1199 33.5727 71.2262 36.6494 71.3867 39.6455C71.5472 42.6415 71.7077 45.37 71.8682 47.8311C72.0822 50.2387 72.2702 52.2987 72.4307 54.0107C72.6447 55.6692 72.8051 56.7392 72.9121 57.2207C73.1261 58.0231 73.3397 58.7989 73.5537 59.5479C73.7677 60.1899 74.0089 60.8592 74.2764 61.5547C74.5439 62.3036 74.8648 62.8924 75.2393 63.3203H67.4541C66.7587 63.3203 66.0901 63.3469 65.4482 63.4004C64.8598 63.4539 64.2445 63.5071 63.6025 63.5605C62.9605 63.6141 62.3719 63.6948 61.8369 63.8018C62.3719 62.9993 62.8001 62.2502 63.1211 61.5547C63.4421 60.8592 63.7098 60.2706 63.9238 59.7891C64.1378 59.2005 64.2983 58.6651 64.4053 58.1836C64.4588 57.8624 64.4854 56.9262 64.4854 55.375C64.4854 53.8235 64.4312 51.8706 64.3242 49.5166C64.2707 47.1625 64.191 44.5139 64.084 41.5713C64.0305 38.6287 63.9232 35.6326 63.7627 32.583C63.6557 29.5334 63.5218 26.5639 63.3613 23.6748C63.2543 20.7859 63.148 18.1911 63.041 15.8906C62.934 13.5367 62.8267 11.6103 62.7197 10.1123C62.6127 8.61432 62.532 7.75801 62.4785 7.54395C62.3715 7.22297 62.1845 6.90203 61.917 6.58105C61.382 5.93905 60.4725 5.32386 59.1885 4.73535C61.9171 4.03983 64.0037 3.47782 65.4482 3.0498C66.3043 2.8358 67.0533 2.62124 67.6953 2.40723C68.2838 2.19323 68.8724 1.97962 69.4609 1.76562C69.9425 1.55162 70.4779 1.31048 71.0664 1.04297C71.6547 0.722047 72.1895 0.374389 72.6709 0Z" stroke="black"/>
<path d="M55.917 25.8412C55.061 29.1047 54.4192 31.8873 53.9912 34.1879C53.6167 36.4884 53.3756 38.4146 53.2686 39.9662C53.0546 41.7317 53.0014 43.2298 53.1084 44.4603C53.2689 45.5839 53.5366 46.7876 53.9111 48.0717C54.2321 49.1416 54.7135 50.3721 55.3555 51.7631C55.9975 53.1541 56.8538 54.5458 57.9238 55.9369C57.2819 55.7229 56.5859 55.5625 55.8369 55.4554C55.0879 55.3484 54.392 55.2677 53.75 55.2142C53.001 55.1607 52.2519 55.1607 51.5029 55.2142C50.754 55.2677 49.925 55.3485 49.0156 55.4554C48.2666 55.5625 47.3562 55.6963 46.2861 55.8568C45.2163 56.0173 44.0929 56.231 42.916 56.4984C43.7185 54.0908 44.3337 52.0042 44.7617 50.2386C45.2432 48.4731 45.5907 47.0016 45.8047 45.8246C46.0187 44.4338 46.1525 43.3104 46.2061 42.4545V34.8304C46.2061 33.5464 46.1795 32.4224 46.126 31.4594C46.0725 30.4428 45.9652 29.8011 45.8047 29.5336L45.0029 28.7308C44.6819 28.4633 44.1996 28.0883 43.5576 27.6068C42.9691 27.0719 42.1667 26.4299 41.1504 25.681L55.917 25.8412ZM46.8486 13.3217C47.9719 12.7334 49.0954 12.5728 50.2188 12.8402C51.3958 13.1077 52.3052 13.6166 52.9473 14.3656C53.5893 15.1146 53.8039 15.9975 53.5898 17.014C53.4293 18.0305 52.5729 19.0198 51.0215 19.9828C49.47 20.8923 48.1057 21.2141 46.9287 20.9467C45.7517 20.6791 44.922 20.1171 44.4404 19.2611C43.9589 18.4051 43.8792 17.4149 44.2002 16.2914C44.5212 15.1144 45.4041 14.1242 46.8486 13.3217Z" fill="#BD7A3F"/>
<path d="M55.917 25.8412C55.061 29.1047 54.4192 31.8873 53.9912 34.1879C53.6167 36.4884 53.3756 38.4146 53.2686 39.9662C53.0546 41.7317 53.0014 43.2298 53.1084 44.4603C53.2689 45.5839 53.5366 46.7876 53.9111 48.0717C54.2321 49.1416 54.7135 50.3721 55.3555 51.7631C55.9975 53.1541 56.8538 54.5458 57.9238 55.9369C57.2819 55.7229 56.5859 55.5625 55.8369 55.4554C55.0879 55.3484 54.392 55.2677 53.75 55.2142C53.001 55.1607 52.2519 55.1607 51.5029 55.2142C50.754 55.2677 49.925 55.3485 49.0156 55.4554C48.2666 55.5625 47.3562 55.6963 46.2861 55.8568C45.2163 56.0173 44.0929 56.231 42.916 56.4984C43.7185 54.0908 44.3337 52.0042 44.7617 50.2386C45.2432 48.4731 45.5907 47.0016 45.8047 45.8246C46.0187 44.4338 46.1525 43.3104 46.2061 42.4545V34.8304C46.2061 33.5464 46.1795 32.4224 46.126 31.4594C46.0725 30.4428 45.9652 29.8011 45.8047 29.5336L45.0029 28.7308C44.6819 28.4633 44.1996 28.0883 43.5576 27.6068C42.9691 27.0719 42.1667 26.4299 41.1504 25.681L55.917 25.8412ZM46.8486 13.3217C47.9719 12.7334 49.0954 12.5728 50.2188 12.8402C51.3958 13.1077 52.3052 13.6166 52.9473 14.3656C53.5893 15.1146 53.8039 15.9975 53.5898 17.014C53.4293 18.0305 52.5729 19.0198 51.0215 19.9828C49.47 20.8923 48.1057 21.2141 46.9287 20.9467C45.7517 20.6791 44.922 20.1171 44.4404 19.2611C43.9589 18.4051 43.8792 17.4149 44.2002 16.2914C44.5212 15.1144 45.4041 14.1242 46.8486 13.3217Z" stroke="black"/>
<path d="M45.2627 3.04968C44.6743 3.95906 44.1662 4.92201 43.7383 5.93835C43.3638 6.90122 43.0429 7.78437 42.7754 8.58679C42.5079 9.54983 42.2667 10.4868 42.0527 11.3964C41.8922 12.4128 41.7052 13.67 41.4912 15.1678C41.2772 16.4519 41.0095 18.0838 40.6885 20.0634C40.421 21.9893 40.0735 24.2898 39.6455 26.9647C38.0405 22.7918 36.4085 19.5819 34.75 17.3348C33.145 15.0879 31.6468 13.4293 30.2559 12.3593C28.6508 11.1287 27.1252 10.4328 25.6807 10.2723C23.5943 10.2724 21.8824 10.674 20.5449 11.4764C19.2074 12.279 18.1109 13.3223 17.2549 14.6063C16.4523 15.8369 15.8362 17.201 15.4082 18.6991C14.9802 20.1436 14.6859 21.562 14.5254 22.953C14.3649 24.2904 14.2586 25.4944 14.2051 26.5643C14.1516 27.5805 14.0974 28.2758 14.0439 28.6503C15.9165 28.5433 17.4952 28.4094 18.7793 28.2489C20.0633 28.0884 21.0801 27.928 21.8291 27.7675C22.7385 27.5535 23.4611 27.3398 23.9961 27.1259C24.7986 26.6979 25.6008 26.1889 26.4033 25.6005C27.0988 25.0655 27.8213 24.4237 28.5703 23.6747C29.3728 22.9257 30.0687 22.0162 30.6572 20.9462C30.3362 22.8722 30.0419 24.4775 29.7744 25.7616C29.5604 27.0456 29.3724 28.0624 29.2119 28.8114C28.998 29.7206 28.8641 30.4159 28.8105 30.8973C28.7035 31.3789 28.5707 32.0481 28.4102 32.9042C28.2497 33.6532 28.0616 34.6159 27.8477 35.7928C27.6337 36.9699 27.3935 38.4414 27.126 40.2069C26.4839 39.0834 25.8147 38.1739 25.1191 37.4784C24.4237 36.7294 23.7818 36.1408 23.1934 35.7128C22.4978 35.2312 21.8286 34.8572 21.1865 34.5897C20.4911 34.3757 19.7419 34.1611 18.9395 33.9471C18.244 33.7867 17.4149 33.6262 16.4521 33.4657C15.5426 33.2517 14.5525 33.0647 13.4824 32.9042C13.5894 35.793 13.7499 38.2806 13.9639 40.3671C14.1779 42.4001 14.3649 44.1127 14.5254 45.5038C14.7394 47.1089 14.954 48.4464 15.168 49.5165C15.4355 50.5865 15.8636 51.7371 16.4521 52.9677C16.9336 54.0376 17.6021 55.2682 18.458 56.6591C19.3675 57.9966 20.5181 59.4415 21.9092 60.993C20.8391 60.7255 19.7151 60.5375 18.5381 60.4305C17.3612 60.3236 16.3176 60.2438 15.4082 60.1903C14.2848 60.1368 13.2147 60.1368 12.1982 60.1903C11.1283 60.2438 9.95093 60.3511 8.66699 60.5116C7.59704 60.6186 6.36646 60.7791 4.97559 60.993C3.58458 61.207 2.11302 61.4472 0.561523 61.7147C1.47105 60.8052 2.22007 59.8957 2.80859 58.9862C3.39704 58.0768 3.82525 57.2744 4.09277 56.579C4.41373 55.7766 4.62833 55.0007 4.73535 54.2518C4.78885 53.6098 4.81543 52.2181 4.81543 50.078C4.81543 47.8845 4.78885 45.343 4.73535 42.454C4.68185 39.5114 4.60114 36.408 4.49414 33.1444C4.38714 29.8809 4.27985 26.8315 4.17285 23.996C4.06585 21.1068 3.93199 18.6453 3.77148 16.6122C3.66449 14.5794 3.53158 13.3488 3.37109 12.9208C3.15709 12.3858 2.91594 11.7706 2.64844 11.0751C2.22042 9.95152 1.33756 8.31966 0 6.17957C3.21014 6.44708 6.01916 6.60751 8.42676 6.66101C10.8878 6.71451 12.9745 6.74109 14.6865 6.74109C16.6659 6.74109 18.3778 6.68792 19.8223 6.58093C21.3203 6.42043 23.2732 6.20585 25.6807 5.93835C27.7137 5.67084 30.3358 5.3234 33.5459 4.89539C36.756 4.41387 40.6616 3.7987 45.2627 3.04968Z" fill="#BD7A3F"/>
<path d="M45.2627 3.04968C44.6743 3.95906 44.1662 4.92201 43.7383 5.93835C43.3638 6.90122 43.0429 7.78437 42.7754 8.58679C42.5079 9.54983 42.2667 10.4868 42.0527 11.3964C41.8922 12.4128 41.7052 13.67 41.4912 15.1678C41.2772 16.4519 41.0095 18.0838 40.6885 20.0634C40.421 21.9893 40.0735 24.2898 39.6455 26.9647C38.0405 22.7918 36.4085 19.5819 34.75 17.3348C33.145 15.0879 31.6468 13.4293 30.2559 12.3593C28.6508 11.1287 27.1252 10.4328 25.6807 10.2723C23.5943 10.2724 21.8824 10.674 20.5449 11.4764C19.2074 12.279 18.1109 13.3223 17.2549 14.6063C16.4523 15.8369 15.8362 17.201 15.4082 18.6991C14.9802 20.1436 14.6859 21.562 14.5254 22.953C14.3649 24.2904 14.2586 25.4944 14.2051 26.5643C14.1516 27.5805 14.0974 28.2758 14.0439 28.6503C15.9165 28.5433 17.4952 28.4094 18.7793 28.2489C20.0633 28.0884 21.0801 27.928 21.8291 27.7675C22.7385 27.5535 23.4611 27.3398 23.9961 27.1259C24.7986 26.6979 25.6008 26.1889 26.4033 25.6005C27.0988 25.0655 27.8213 24.4237 28.5703 23.6747C29.3728 22.9257 30.0687 22.0162 30.6572 20.9462C30.3362 22.8722 30.0419 24.4775 29.7744 25.7616C29.5604 27.0456 29.3724 28.0624 29.2119 28.8114C28.998 29.7206 28.8641 30.4159 28.8105 30.8973C28.7035 31.3789 28.5707 32.0481 28.4102 32.9042C28.2497 33.6532 28.0616 34.6159 27.8477 35.7928C27.6337 36.9699 27.3935 38.4414 27.126 40.2069C26.4839 39.0834 25.8147 38.1739 25.1191 37.4784C24.4237 36.7294 23.7818 36.1408 23.1934 35.7128C22.4978 35.2312 21.8286 34.8572 21.1865 34.5897C20.4911 34.3757 19.7419 34.1611 18.9395 33.9471C18.244 33.7867 17.4149 33.6262 16.4521 33.4657C15.5426 33.2517 14.5525 33.0647 13.4824 32.9042C13.5894 35.793 13.7499 38.2806 13.9639 40.3671C14.1779 42.4001 14.3649 44.1127 14.5254 45.5038C14.7394 47.1089 14.954 48.4464 15.168 49.5165C15.4355 50.5865 15.8636 51.7371 16.4521 52.9677C16.9336 54.0376 17.6021 55.2682 18.458 56.6591C19.3675 57.9966 20.5181 59.4415 21.9092 60.993C20.8391 60.7255 19.7151 60.5375 18.5381 60.4305C17.3612 60.3236 16.3176 60.2438 15.4082 60.1903C14.2848 60.1368 13.2147 60.1368 12.1982 60.1903C11.1283 60.2438 9.95093 60.3511 8.66699 60.5116C7.59704 60.6186 6.36646 60.7791 4.97559 60.993C3.58458 61.207 2.11302 61.4472 0.561523 61.7147C1.47105 60.8052 2.22007 59.8957 2.80859 58.9862C3.39704 58.0768 3.82525 57.2744 4.09277 56.579C4.41373 55.7766 4.62833 55.0007 4.73535 54.2518C4.78885 53.6098 4.81543 52.2181 4.81543 50.078C4.81543 47.8845 4.78885 45.343 4.73535 42.454C4.68185 39.5114 4.60114 36.408 4.49414 33.1444C4.38714 29.8809 4.27985 26.8315 4.17285 23.996C4.06585 21.1068 3.93199 18.6453 3.77148 16.6122C3.66449 14.5794 3.53158 13.3488 3.37109 12.9208C3.15709 12.3858 2.91594 11.7706 2.64844 11.0751C2.22042 9.95152 1.33756 8.31966 0 6.17957C3.21014 6.44708 6.01916 6.60751 8.42676 6.66101C10.8878 6.71451 12.9745 6.74109 14.6865 6.74109C16.6659 6.74109 18.3778 6.68792 19.8223 6.58093C21.3203 6.42043 23.2732 6.20585 25.6807 5.93835C27.7137 5.67084 30.3358 5.3234 33.5459 4.89539C36.756 4.41387 40.6616 3.7987 45.2627 3.04968Z" stroke="black"/>
</svg>
